<svg width="24" height="24" viewBox="0 0 24 24" fill="none" xmlns="http://www.w3.org/2000/svg">
<path d="M6.43152 7.05664L17.5685 18.1936L6.43152 7.05664ZM16.773 6.26115C17.2123 5.82181 17.9246 5.82181 18.3639 6.26115C18.8033 6.70049 18.8033 7.4128 18.3639 7.85214L13.5905 12.6246L18.3639 17.3981C18.8033 17.8374 18.8033 18.5497 18.3639 18.9891C17.9246 19.4284 17.2123 19.4284 16.773 18.9891L11.9995 14.2156L7.22701 18.9891C6.81906 19.397 6.17573 19.4262 5.73415 19.0765L5.63602 18.9891C5.19668 18.5497 5.19668 17.8374 5.63602 17.3981L10.4085 12.6246L5.63602 7.85214C5.19668 7.4128 5.19668 6.70049 5.63602 6.26115C6.07536 5.82181 6.78767 5.82181 7.22701 6.26115L11.9995 11.0336L16.773 6.26115Z" fill="currentColor"/>
</svg>
