<svg width="24" height="24" viewBox="0 0 24 24" fill="none" xmlns="http://www.w3.org/2000/svg">
<path d="M6.00001 20.9999C5.44773 20.9999 5.00001 20.5522 5.00001 19.9999L5 10.5589L3.66437 11.7473C3.28334 12.086 2.71546 12.0804 2.34176 11.7529L2.2526 11.6643C1.91391 11.2833 1.91954 10.7154 2.24707 10.3417L2.33565 10.2525L10.6713 2.84307C11.3845 2.20912 12.438 2.17183 13.1912 2.7312L13.3287 2.84307L21.6644 10.2525C22.0772 10.6194 22.1143 11.2515 21.7474 11.6643C21.4087 12.0453 20.8441 12.1063 20.4346 11.8249L20.3356 11.7473L19 10.5599L19 19.9999C19 20.5128 18.614 20.9354 18.1166 20.9932L18 20.9999H6.00001ZM12 4.33694L6.98025 8.80112C6.99321 8.86537 7.00001 8.93186 7.00001 8.99994L7 18.9999H17L17 8.99994C17 8.93151 17.0069 8.86469 17.02 8.80013L12 4.33694Z" fill="currentColor"/>
</svg>
