<svg width="24" height="24" viewBox="0 0 24 24" fill="none" xmlns="http://www.w3.org/2000/svg">
<path fill-rule="evenodd" clip-rule="evenodd" d="M12.7541 21.3894C12.6186 21.5097 12.4816 21.6137 12.3432 21.7207C12.1432 21.8752 11.8568 21.8751 11.6569 21.7206C11.5186 21.6137 11.3817 21.5097 11.2463 21.3894C5.06697 15.9035 1.92697 12.8268 2.00129 8.55556C2.00129 5.48731 4.73707 3 8.11184 3C9.58897 3 10.9437 3.47652 12.0002 4.2697C13.0566 3.47652 14.4113 3 15.8885 3C19.2632 3 21.999 5.48731 21.999 8.55556C22.0733 12.8268 18.9334 15.9036 12.7541 21.3894ZM4.00129 8.57295L4.00099 8.59035C3.97306 10.1955 4.53627 11.6505 6.02592 13.502C7.33376 15.1275 9.23431 17.0251 11.8335 19.3511C11.9282 19.4358 12.0722 19.4358 12.1669 19.3511C14.766 17.0251 16.6666 15.1276 17.9744 13.502C19.464 11.6505 20.0273 10.1955 19.9993 8.59035L19.999 8.57295V8.55556C19.999 6.76682 18.3421 5 15.8885 5C14.843 5 13.91 5.33679 13.201 5.8691L12.1503 6.65795C12.0613 6.72472 11.939 6.72472 11.8501 6.65795L10.7994 5.8691C10.0903 5.33679 9.15729 5 8.11184 5C5.65818 5 4.00129 6.76682 4.00129 8.55556V8.57295Z" fill="currentColor"/>
</svg>
