<svg width="24" height="24" viewBox="0 0 24 24" fill="none" xmlns="http://www.w3.org/2000/svg">
<path d="M5.95 2C6.49124 2 6.93683 2.40951 6.99384 2.93559L7 3.05V4.999L19.8827 5C20.435 5 20.8827 5.44772 20.8827 6L20.8812 6.0553L20.0924 13.1683C20.0389 13.6496 19.6483 14.0235 19.165 14.0557L6.75 14.882V16.25H19C19.3797 16.25 19.6935 16.5322 19.7432 16.8982L19.75 17C19.75 17.3797 19.4678 17.6935 19.1018 17.7432L19 17.75L18.6511 17.7495C19.1598 18.0557 19.5 18.6131 19.5 19.25C19.5 20.2165 18.7165 21 17.75 21C16.7835 21 16 20.2165 16 19.25C16 18.6131 16.3402 18.0557 16.8489 17.7495H7.65114C8.15977 18.0557 8.5 18.6131 8.5 19.25C8.5 20.2165 7.7165 21 6.75 21C5.7835 21 5 20.2165 5 19.25C5 18.5991 5.3554 18.0311 5.88275 17.7297C5.5534 17.6626 5.29867 17.3895 5.25623 17.0504L5.25 16.95L5.2492 14.5917C5.1085 14.432 5.01747 14.2264 5.00221 13.9976L5.00055 13.9644L5 4H3C2.48716 4 2.06449 3.61396 2.00673 3.11662L2 3C2 2.48716 2.38604 2.06449 2.88338 2.00673L3 2H5.95ZM18.765 7L7 6.999V7L6.999 7.017L6.998 12.862L18.196 12.116L18.765 7Z" fill="currentColor"/>
</svg>
